<mxfile host="65bd71144e">
    <diagram id="r5A8giHGuZ0CLjdv11Sm" name="Page-1">
        <mxGraphModel dx="663" dy="1553" grid="1" gridSize="10" guides="1" tooltips="1" connect="1" arrows="1" fold="1" page="1" pageScale="1" pageWidth="850" pageHeight="1100" math="0" shadow="0">
            <root>
                <mxCell id="0"/>
                <mxCell id="1" parent="0"/>
                <mxCell id="4" value="Application Processor" style="whiteSpace=wrap;html=1;fillColor=#808080;align=center;labelPosition=center;verticalLabelPosition=top;verticalAlign=bottom;fontStyle=5" vertex="1" parent="1">
                    <mxGeometry x="90" y="-40" width="820" height="570" as="geometry"/>
                </mxCell>
                <mxCell id="3" value="Linux OS" style="whiteSpace=wrap;html=1;fillColor=#00CC66;align=center;labelPosition=center;verticalLabelPosition=top;verticalAlign=bottom;fontStyle=5" vertex="1" parent="1">
                    <mxGeometry x="140" y="-10" width="720" height="510" as="geometry"/>
                </mxCell>
                <mxCell id="2" value="Sensor Synthesizer" style="whiteSpace=wrap;html=1;fillColor=#007FFF;align=right;labelPosition=left;verticalLabelPosition=top;verticalAlign=bottom;fontStyle=5;spacingTop=0;spacingRight=-120;spacingBottom=-18;" vertex="1" parent="1">
                    <mxGeometry x="340" y="10" width="320" height="300" as="geometry"/>
                </mxCell>
                <mxCell id="5" value="Sensor 1" style="ellipse;whiteSpace=wrap;html=1;aspect=fixed;fillColor=#FF3333;" vertex="1" parent="1">
                    <mxGeometry x="190" y="570" width="80" height="80" as="geometry"/>
                </mxCell>
                <mxCell id="8" value="Sensor 6" style="ellipse;whiteSpace=wrap;html=1;aspect=fixed;fillColor=#FF3333;" vertex="1" parent="1">
                    <mxGeometry x="730" y="570" width="80" height="80" as="geometry"/>
                </mxCell>
                <mxCell id="9" value="Sensor 2" style="ellipse;whiteSpace=wrap;html=1;aspect=fixed;fillColor=#FF3333;" vertex="1" parent="1">
                    <mxGeometry x="300" y="570" width="80" height="80" as="geometry"/>
                </mxCell>
                <mxCell id="10" value="Sensor 3" style="ellipse;whiteSpace=wrap;html=1;aspect=fixed;fillColor=#FF3333;" vertex="1" parent="1">
                    <mxGeometry x="410" y="570" width="80" height="80" as="geometry"/>
                </mxCell>
                <mxCell id="11" value="Sensor 4" style="ellipse;whiteSpace=wrap;html=1;aspect=fixed;fillColor=#FF3333;" vertex="1" parent="1">
                    <mxGeometry x="510" y="570" width="80" height="80" as="geometry"/>
                </mxCell>
                <mxCell id="12" value="Sensor 5" style="ellipse;whiteSpace=wrap;html=1;aspect=fixed;fillColor=#FF3333;" vertex="1" parent="1">
                    <mxGeometry x="620" y="570" width="80" height="80" as="geometry"/>
                </mxCell>
                <mxCell id="13" value="Peripheral &amp;amp; Device Drivers" style="whiteSpace=wrap;html=1;fillColor=#FF9933;align=center;labelPosition=center;verticalLabelPosition=middle;verticalAlign=middle;fontStyle=5" vertex="1" parent="1">
                    <mxGeometry x="190" y="430" width="620" height="70" as="geometry"/>
                </mxCell>
                <mxCell id="14" value="Data Logger" style="whiteSpace=wrap;html=1;fillColor=#007FFF;align=center;labelPosition=center;verticalLabelPosition=middle;verticalAlign=middle;fontStyle=5" vertex="1" parent="1">
                    <mxGeometry x="730" y="72.5" width="110" height="55" as="geometry"/>
                </mxCell>
                <mxCell id="15" value="" style="endArrow=classic;html=1;exitX=0.5;exitY=0;exitDx=0;exitDy=0;fontStyle=0;strokeWidth=2;" edge="1" parent="1" source="5">
                    <mxGeometry width="50" height="50" relative="1" as="geometry">
                        <mxPoint x="150" y="560" as="sourcePoint"/>
                        <mxPoint x="230" y="500" as="targetPoint"/>
                    </mxGeometry>
                </mxCell>
                <mxCell id="16" value="Sensor Data" style="edgeLabel;html=1;align=center;verticalAlign=middle;resizable=0;points=[];" vertex="1" connectable="0" parent="15">
                    <mxGeometry x="-0.1796" y="-4" relative="1" as="geometry">
                        <mxPoint as="offset"/>
                    </mxGeometry>
                </mxCell>
                <mxCell id="17" value="" style="endArrow=classic;html=1;exitX=0.5;exitY=0;exitDx=0;exitDy=0;fontStyle=0;strokeWidth=2;" edge="1" parent="1">
                    <mxGeometry width="50" height="50" relative="1" as="geometry">
                        <mxPoint x="339.71" y="570" as="sourcePoint"/>
                        <mxPoint x="339.71" y="500" as="targetPoint"/>
                    </mxGeometry>
                </mxCell>
                <mxCell id="18" value="Sensor Data" style="edgeLabel;html=1;align=center;verticalAlign=middle;resizable=0;points=[];" vertex="1" connectable="0" parent="17">
                    <mxGeometry x="-0.1796" y="-4" relative="1" as="geometry">
                        <mxPoint as="offset"/>
                    </mxGeometry>
                </mxCell>
                <mxCell id="19" value="" style="endArrow=classic;html=1;exitX=0.5;exitY=0;exitDx=0;exitDy=0;fontStyle=0;strokeWidth=2;" edge="1" parent="1">
                    <mxGeometry width="50" height="50" relative="1" as="geometry">
                        <mxPoint x="449.71000000000004" y="570" as="sourcePoint"/>
                        <mxPoint x="449.71000000000004" y="500" as="targetPoint"/>
                    </mxGeometry>
                </mxCell>
                <mxCell id="20" value="Sensor Data" style="edgeLabel;html=1;align=center;verticalAlign=middle;resizable=0;points=[];" vertex="1" connectable="0" parent="19">
                    <mxGeometry x="-0.1796" y="-4" relative="1" as="geometry">
                        <mxPoint as="offset"/>
                    </mxGeometry>
                </mxCell>
                <mxCell id="21" value="" style="endArrow=classic;html=1;exitX=0.5;exitY=0;exitDx=0;exitDy=0;fontStyle=0;strokeWidth=2;" edge="1" parent="1">
                    <mxGeometry width="50" height="50" relative="1" as="geometry">
                        <mxPoint x="549.71" y="570" as="sourcePoint"/>
                        <mxPoint x="549.71" y="500" as="targetPoint"/>
                    </mxGeometry>
                </mxCell>
                <mxCell id="22" value="Sensor Data" style="edgeLabel;html=1;align=center;verticalAlign=middle;resizable=0;points=[];" vertex="1" connectable="0" parent="21">
                    <mxGeometry x="-0.1796" y="-4" relative="1" as="geometry">
                        <mxPoint as="offset"/>
                    </mxGeometry>
                </mxCell>
                <mxCell id="23" value="" style="endArrow=classic;html=1;exitX=0.5;exitY=0;exitDx=0;exitDy=0;fontStyle=0;strokeWidth=2;" edge="1" parent="1">
                    <mxGeometry width="50" height="50" relative="1" as="geometry">
                        <mxPoint x="659.71" y="570" as="sourcePoint"/>
                        <mxPoint x="659.71" y="500" as="targetPoint"/>
                    </mxGeometry>
                </mxCell>
                <mxCell id="24" value="Sensor Data" style="edgeLabel;html=1;align=center;verticalAlign=middle;resizable=0;points=[];" vertex="1" connectable="0" parent="23">
                    <mxGeometry x="-0.1796" y="-4" relative="1" as="geometry">
                        <mxPoint as="offset"/>
                    </mxGeometry>
                </mxCell>
                <mxCell id="25" value="" style="endArrow=classic;html=1;exitX=0.5;exitY=0;exitDx=0;exitDy=0;fontStyle=0;strokeWidth=2;" edge="1" parent="1">
                    <mxGeometry width="50" height="50" relative="1" as="geometry">
                        <mxPoint x="769.71" y="570" as="sourcePoint"/>
                        <mxPoint x="769.71" y="500" as="targetPoint"/>
                    </mxGeometry>
                </mxCell>
                <mxCell id="26" value="Sensor Data" style="edgeLabel;html=1;align=center;verticalAlign=middle;resizable=0;points=[];" vertex="1" connectable="0" parent="25">
                    <mxGeometry x="-0.1796" y="-4" relative="1" as="geometry">
                        <mxPoint as="offset"/>
                    </mxGeometry>
                </mxCell>
                <mxCell id="27" value="FAKE: Data Aquisition" style="whiteSpace=wrap;html=1;fillColor=#007FFF;align=center;labelPosition=center;verticalLabelPosition=middle;verticalAlign=middle;fontStyle=5" vertex="1" parent="1">
                    <mxGeometry x="630" y="340" width="200" height="70" as="geometry"/>
                </mxCell>
                <mxCell id="31" value="" style="endArrow=classic;html=1;exitX=0;exitY=0.5;exitDx=0;exitDy=0;fontStyle=0;strokeWidth=2;entryX=0.5;entryY=1;entryDx=0;entryDy=0;dashed=1;dashPattern=1 1;" edge="1" parent="1" source="27" target="2">
                    <mxGeometry width="50" height="50" relative="1" as="geometry">
                        <mxPoint x="730" y="340" as="sourcePoint"/>
                        <mxPoint x="730" y="220" as="targetPoint"/>
                        <Array as="points">
                            <mxPoint x="500" y="375"/>
                        </Array>
                    </mxGeometry>
                </mxCell>
                <mxCell id="29" value="" style="endArrow=classic;html=1;exitX=0.5;exitY=0;exitDx=0;exitDy=0;fontStyle=0;strokeWidth=2;entryX=0.5;entryY=1;entryDx=0;entryDy=0;dashed=1;dashPattern=1 1;" edge="1" parent="1" source="13" target="2">
                    <mxGeometry width="50" height="50" relative="1" as="geometry">
                        <mxPoint x="490.00000000000006" y="430" as="sourcePoint"/>
                        <mxPoint x="490.00000000000006" y="360" as="targetPoint"/>
                    </mxGeometry>
                </mxCell>
                <mxCell id="30" value="Sensor Data" style="edgeLabel;html=1;align=center;verticalAlign=middle;resizable=0;points=[];" vertex="1" connectable="0" parent="29">
                    <mxGeometry x="-0.1796" y="-4" relative="1" as="geometry">
                        <mxPoint x="-4" y="-41" as="offset"/>
                    </mxGeometry>
                </mxCell>
                <mxCell id="34" value="&lt;font color=&quot;#050505&quot;&gt;&lt;span style=&quot;font-family: Helvetica; font-size: 12px; font-style: normal; font-variant-ligatures: normal; font-variant-caps: normal; font-weight: 400; letter-spacing: normal; orphans: 2; text-indent: 0px; text-transform: none; widows: 2; word-spacing: 0px; -webkit-text-stroke-width: 0px; text-decoration-thickness: initial; text-decoration-style: initial; text-decoration-color: initial; float: none; display: inline !important;&quot;&gt;Populate Data into corresponding Sensor Buffer&lt;/span&gt;&lt;br&gt;&lt;/font&gt;" style="shape=process;whiteSpace=wrap;html=1;backgroundOutline=1;fontColor=default;fillColor=#CCE5FF;labelBackgroundColor=none;align=center;" vertex="1" parent="1">
                    <mxGeometry x="400" y="280" width="200" height="30" as="geometry"/>
                </mxCell>
                <mxCell id="36" value="" style="shape=cylinder3;whiteSpace=wrap;html=1;boundedLbl=1;backgroundOutline=1;size=15;labelBackgroundColor=none;fontColor=#050505;fillColor=#FF9999;" vertex="1" parent="1">
                    <mxGeometry x="485" y="180" width="30" height="50" as="geometry"/>
                </mxCell>
                <mxCell id="37" value="" style="endArrow=classic;html=1;exitX=0.5;exitY=0;exitDx=0;exitDy=0;fontStyle=0;strokeWidth=2;entryX=0.5;entryY=1;entryDx=0;entryDy=0;dashed=1;dashPattern=1 1;entryPerimeter=0;" edge="1" parent="1" source="34" target="36">
                    <mxGeometry width="50" height="50" relative="1" as="geometry">
                        <mxPoint x="980" y="270" as="sourcePoint"/>
                        <mxPoint x="980" y="150" as="targetPoint"/>
                    </mxGeometry>
                </mxCell>
                <mxCell id="38" value="Sensor Data" style="edgeLabel;html=1;align=center;verticalAlign=middle;resizable=0;points=[];" vertex="1" connectable="0" parent="37">
                    <mxGeometry x="-0.1796" y="-4" relative="1" as="geometry">
                        <mxPoint x="-4" y="1" as="offset"/>
                    </mxGeometry>
                </mxCell>
                <mxCell id="39" value="&lt;font color=&quot;#050505&quot;&gt;&lt;span style=&quot;font-family: Helvetica; font-size: 12px; font-style: normal; font-variant-ligatures: normal; font-variant-caps: normal; font-weight: 400; letter-spacing: normal; orphans: 2; text-indent: 0px; text-transform: none; widows: 2; word-spacing: 0px; -webkit-text-stroke-width: 0px; text-decoration-thickness: initial; text-decoration-style: initial; text-decoration-color: initial; float: none; display: inline !important;&quot;&gt;1 Hz: Perform Statistical Analysis on Sensor Buffers and report to Data Logger thread&lt;/span&gt;&lt;br&gt;&lt;/font&gt;" style="shape=process;whiteSpace=wrap;html=1;backgroundOutline=1;fontColor=default;fillColor=#CCE5FF;labelBackgroundColor=none;align=center;" vertex="1" parent="1">
                    <mxGeometry x="400" y="60" width="200" height="80" as="geometry"/>
                </mxCell>
                <mxCell id="40" value="" style="endArrow=classic;html=1;exitX=0.5;exitY=0;exitDx=0;exitDy=0;fontStyle=0;strokeWidth=2;dashed=1;dashPattern=1 1;exitPerimeter=0;entryX=0.5;entryY=1;entryDx=0;entryDy=0;" edge="1" parent="1" source="36" target="39">
                    <mxGeometry width="50" height="50" relative="1" as="geometry">
                        <mxPoint x="510" y="440" as="sourcePoint"/>
                        <mxPoint x="510" y="320" as="targetPoint"/>
                    </mxGeometry>
                </mxCell>
                <mxCell id="41" value="Sensor Data" style="edgeLabel;html=1;align=center;verticalAlign=middle;resizable=0;points=[];" vertex="1" connectable="0" parent="40">
                    <mxGeometry x="-0.1796" y="-4" relative="1" as="geometry">
                        <mxPoint x="-4" y="1" as="offset"/>
                    </mxGeometry>
                </mxCell>
                <mxCell id="42" value="" style="endArrow=classic;html=1;exitX=1;exitY=0.5;exitDx=0;exitDy=0;fontStyle=0;strokeWidth=2;dashed=1;dashPattern=1 1;entryX=0;entryY=0.5;entryDx=0;entryDy=0;" edge="1" parent="1" source="39" target="14">
                    <mxGeometry width="50" height="50" relative="1" as="geometry">
                        <mxPoint x="940" y="140" as="sourcePoint"/>
                        <mxPoint x="720" y="100" as="targetPoint"/>
                    </mxGeometry>
                </mxCell>
                <mxCell id="43" value="Runtime Averages" style="edgeLabel;html=1;align=center;verticalAlign=middle;resizable=0;points=[];" vertex="1" connectable="0" parent="42">
                    <mxGeometry x="-0.1796" y="-4" relative="1" as="geometry">
                        <mxPoint x="7" y="-4" as="offset"/>
                    </mxGeometry>
                </mxCell>
            </root>
        </mxGraphModel>
    </diagram>
</mxfile>